<?xml version="1.0" encoding="UTF-8" standalone="no"?>
<svg
   xmlns:dc="http://purl.org/dc/elements/1.1/"
   xmlns:cc="http://creativecommons.org/ns#"
   xmlns:rdf="http://www.w3.org/1999/02/22-rdf-syntax-ns#"
   xmlns:svg="http://www.w3.org/2000/svg"
   xmlns="http://www.w3.org/2000/svg"
   xmlns:xlink="http://www.w3.org/1999/xlink"
   id="svg8"
   version="1.1"
   viewBox="0 0 338.66667 190.5"
   height="720"
   width="1280">
  <defs
     id="defs2">
    <linearGradient
       id="linearGradient928">
      <stop
         id="stop924"
         offset="0"
         style="stop-color:#0e1a31;stop-opacity:1" />
      <stop
         id="stop926"
         offset="1"
         style="stop-color:#20355d;stop-opacity:1" />
    </linearGradient>
    <linearGradient
       id="linearGradient920">
      <stop
         style="stop-color:#0b2c68;stop-opacity:1"
         offset="0"
         id="stop916" />
      <stop
         style="stop-color:#395ea5;stop-opacity:1"
         offset="1"
         id="stop918" />
    </linearGradient>
    <linearGradient
       id="linearGradient1136">
      <stop
         id="stop1132"
         offset="0"
         style="stop-color:#38599c;stop-opacity:1" />
      <stop
         id="stop1134"
         offset="1"
         style="stop-color:#183272;stop-opacity:1" />
    </linearGradient>
    <linearGradient
       id="linearGradient1126">
      <stop
         id="stop1122"
         offset="0"
         style="stop-color:#38599c;stop-opacity:1" />
      <stop
         id="stop1124"
         offset="1"
         style="stop-color:#183272;stop-opacity:1" />
    </linearGradient>
    <linearGradient
       id="linearGradient957">
      <stop
         id="stop953"
         offset="0"
         style="stop-color:#1c4eac;stop-opacity:1;" />
      <stop
         id="stop955"
         offset="1"
         style="stop-color:#3570de;stop-opacity:1" />
    </linearGradient>
    <linearGradient
       gradientUnits="userSpaceOnUse"
       y2="114.3"
       x2="304.79999"
       y1="190.5"
       x1="101.6"
       id="linearGradient959"
       xlink:href="#linearGradient957" />
    <linearGradient
       gradientUnits="userSpaceOnUse"
       y2="756.50482"
       x2="1336.6941"
       y1="336.63998"
       x1="36.609268"
       id="linearGradient1128"
       xlink:href="#linearGradient1126" />
    <linearGradient
       gradientUnits="userSpaceOnUse"
       y2="756.50482"
       x2="1336.6941"
       y1="336.63998"
       x1="36.609268"
       id="linearGradient1138"
       xlink:href="#linearGradient1136" />
    <linearGradient
       y2="152.40001"
       x2="338.66672"
       y1="76.200005"
       x1="67.733345"
       gradientTransform="scale(3.7795272)"
       gradientUnits="userSpaceOnUse"
       id="linearGradient86"
       xlink:href="#linearGradient920" />
    <linearGradient
       gradientUnits="userSpaceOnUse"
       y2="92.164192"
       x2="244.97018"
       y1="14.177312"
       x1="244.90129"
       id="linearGradient930"
       xlink:href="#linearGradient928" />
    <filter
       height="1.2221062"
       y="-0.11105312"
       width="1.0538165"
       x="-0.02690823"
       id="filter938"
       style="color-interpolation-filters:sRGB">
      <feGaussianBlur
         id="feGaussianBlur940"
         stdDeviation="3.7989262" />
    </filter>
    <filter
       height="1.1669147"
       y="-0.083457349"
       width="1.0585037"
       x="-0.02925184"
       id="filter944"
       style="color-interpolation-filters:sRGB">
      <feGaussianBlur
         id="feGaussianBlur946"
         stdDeviation="15.600981" />
    </filter>
    <filter
       height="1.2677923"
       y="-0.13389615"
       width="1.0516802"
       x="-0.025840076"
       id="filter950"
       style="color-interpolation-filters:sRGB">
      <feGaussianBlur
         id="feGaussianBlur952"
         stdDeviation="13.781374" />
    </filter>
  </defs>
  <metadata
     id="metadata5">
    <rdf:RDF>
      <cc:Work
         rdf:about="">
        <dc:format>image/svg+xml</dc:format>
        <dc:type
           rdf:resource="http://purl.org/dc/dcmitype/StillImage" />
        <dc:title></dc:title>
      </cc:Work>
    </rdf:RDF>
  </metadata>
  <g
     id="layer1">
    <rect
       y="0"
       x="0"
       height="190.5"
       width="338.66666"
       id="rect922"
       style="fill:url(#linearGradient930);fill-opacity:1;stroke-width:0.264583" />
    <path
       id="path948"
       style="fill:#000000;fill-opacity:0.56451613;stroke:none;stroke-width:0.999999;filter:url(#filter950)"
       d="M 726.20117 309.50586 C 722.05914 309.49113 717.91556 309.50174 713.76953 309.53906 C 478.38906 311.65805 236.67468 396.94025 0 489.78906 L 0 552.85156 L 905.57227 555.44727 L 1280 556.52148 L 1280 519.13086 C 1222.2809 469.16959 1163.4453 429.52585 1103.709 398.77148 C 981.05706 335.62597 854.60415 309.96236 726.20117 309.50586 z "
       transform="scale(0.26458333)" />
    <path
       transform="scale(0.26458333)"
       d="M 726.20117 309.50586 C 722.05914 309.49113 717.91556 309.50174 713.76953 309.53906 C 478.38906 311.65805 236.67468 396.94025 0 489.78906 L 0 552.85156 L 905.57227 555.44727 L 1280 556.52148 L 1280 519.13086 C 1222.2809 469.16959 1163.4453 429.52585 1103.709 398.77148 C 981.05706 335.62597 854.60415 309.96236 726.20117 309.50586 z "
       style="fill:url(#linearGradient86);fill-opacity:1;stroke:none;stroke-width:0.999999"
       id="path1101" />
    <path
       id="path942"
       style="fill:#000000;fill-opacity:0.41129032;stroke:url(#linearGradient1128);stroke-width:0.999999;stroke-opacity:1;opacity:1;filter:url(#filter944)"
       d="M 1280 409.51758 C 1277.4774 412.12064 1274.9922 414.7607 1272.4141 417.30859 C 1267.8342 421.8348 1263.169 426.27274 1258.4199 430.62109 C 1253.6709 434.96945 1248.8382 439.2269 1243.9277 443.39258 C 1239.0173 447.55826 1234.0289 451.63118 1228.9648 455.60938 C 1223.9008 459.58757 1218.7606 463.47192 1213.5508 467.25781 C 1208.341 471.0437 1203.0607 474.73154 1197.7129 478.32031 C 1192.365 481.90909 1186.9507 485.39831 1181.4727 488.78516 C 1175.9946 492.172 1170.4521 495.45662 1164.8516 498.63672 C 1159.2511 501.81682 1153.5921 504.89279 1147.877 507.86133 C 1142.1618 510.82987 1136.3904 513.6912 1130.5684 516.44336 C 1124.7463 519.19552 1118.8742 521.83817 1112.9531 524.36914 C 1107.032 526.90012 1101.0632 529.32003 1095.0508 531.625 C 1089.0384 533.92997 1082.9826 536.11921 1076.8867 538.19336 C 1070.7908 540.26751 1064.654 542.22593 1058.4824 544.06445 C 1052.3108 545.90297 1046.1028 547.62263 1039.8633 549.2207 C 1033.6237 550.81878 1027.3542 552.29581 1021.0586 553.65039 C 1014.763 555.00497 1008.442 556.2361 1002.0996 557.34766 C 995.75717 558.45922 989.39384 559.44934 983.01367 560.31836 C 976.6335 561.18738 970.23689 561.93554 963.82812 562.5625 C 957.41936 563.18946 950.99852 563.69666 944.57031 564.08203 C 938.1421 564.4674 931.70609 564.73073 925.26758 564.875 C 918.82906 565.01927 912.38694 565.04362 905.94727 564.94727 C 899.50759 564.85091 893.07037 564.63534 886.63867 564.29883 C 880.20698 563.96232 873.78176 563.50586 867.36719 562.92969 C 860.95262 562.35351 854.54846 561.65717 848.16016 560.8418 C 841.77185 560.02643 835.39977 559.09119 829.04688 558.03711 C 822.69398 556.98303 816.36108 555.8099 810.05273 554.51758 C 803.74439 553.22526 797.45973 551.81328 791.20508 550.2832 C 784.95043 548.75313 778.72502 547.10524 772.5332 545.33789 C 766.34139 543.57054 760.18429 541.68384 754.06445 539.67969 C 747.94462 537.67553 741.86293 535.55298 735.82422 533.3125 C 728.85752 530.72772 721.96221 527.99827 715.13281 525.13672 C 708.30341 522.27517 701.53956 519.28145 694.83398 516.16992 C 688.12841 513.05839 681.48194 509.82886 674.88672 506.49414 C 668.29149 503.15942 661.74835 499.72056 655.25 496.18945 C 648.75165 492.65834 642.29776 489.03469 635.88281 485.33398 C 629.46786 481.63328 623.09112 477.85522 616.74609 474.01172 C 604.05604 466.32471 591.49121 458.37869 579 450.28125 C 566.50879 442.18381 554.09157 433.93414 541.69141 425.64062 C 529.29124 417.34711 516.90911 409.0096 504.49219 400.73438 C 492.07526 392.45915 479.62352 384.24765 467.08203 376.20508 C 454.54055 368.1625 441.90862 360.28892 429.13477 352.69336 C 422.74784 348.89558 416.31355 345.16262 409.83008 341.50977 C 403.34661 337.85691 396.81461 334.28501 390.23242 330.80859 C 383.65023 327.33218 377.01903 323.95205 370.33594 320.68359 C 363.65285 317.41514 356.91703 314.25751 350.13086 311.22852 C 343.34469 308.19952 336.50666 305.29903 329.61523 302.54102 C 322.72381 299.783 315.78011 297.16842 308.78125 294.71289 C 301.78239 292.25736 294.72957 289.95942 287.62109 287.83789 C 280.51261 285.71636 273.34723 283.76969 266.12695 282.01367 C 258.90668 280.25766 251.62455 278.70072 244.29688 277.35547 C 236.9692 276.01022 229.5978 274.87678 222.19922 273.9707 C 214.80064 273.06462 207.37439 272.38578 199.94141 271.94727 C 192.50842 271.50875 185.06761 271.31168 177.63672 271.36914 C 170.20583 271.4266 162.78487 271.73848 155.39258 272.32031 C 148.00028 272.90214 140.63752 273.75407 133.32031 274.88867 C 126.00311 276.02327 118.73101 277.44048 111.52539 279.15625 C 104.31977 280.87202 97.180576 282.88559 90.123047 285.21094 C 83.230644 287.48188 76.43918 290.05044 69.769531 292.90234 C 63.099882 295.75425 56.551429 298.89071 50.144531 302.29297 C 43.737633 305.69522 37.471337 309.36318 31.367188 313.28516 C 25.263038 317.20713 19.321951 321.38189 13.560547 325.79297 C 8.8880535 329.37035 4.4232421 333.20901 0 337.08984 L 0 720 L 1280 720 L 1280 409.51758 z "
       transform="scale(0.26458333)" />
    <path
       transform="scale(0.26458333)"
       d="M 1280 409.51758 C 1277.4774 412.12064 1274.9922 414.7607 1272.4141 417.30859 C 1267.8342 421.8348 1263.169 426.27274 1258.4199 430.62109 C 1253.6709 434.96945 1248.8382 439.2269 1243.9277 443.39258 C 1239.0173 447.55826 1234.0289 451.63118 1228.9648 455.60938 C 1223.9008 459.58757 1218.7606 463.47192 1213.5508 467.25781 C 1208.341 471.0437 1203.0607 474.73154 1197.7129 478.32031 C 1192.365 481.90909 1186.9507 485.39831 1181.4727 488.78516 C 1175.9946 492.172 1170.4521 495.45662 1164.8516 498.63672 C 1159.2511 501.81682 1153.5921 504.89279 1147.877 507.86133 C 1142.1618 510.82987 1136.3904 513.6912 1130.5684 516.44336 C 1124.7463 519.19552 1118.8742 521.83817 1112.9531 524.36914 C 1107.032 526.90012 1101.0632 529.32003 1095.0508 531.625 C 1089.0384 533.92997 1082.9826 536.11921 1076.8867 538.19336 C 1070.7908 540.26751 1064.654 542.22593 1058.4824 544.06445 C 1052.3108 545.90297 1046.1028 547.62263 1039.8633 549.2207 C 1033.6237 550.81878 1027.3542 552.29581 1021.0586 553.65039 C 1014.763 555.00497 1008.442 556.2361 1002.0996 557.34766 C 995.75717 558.45922 989.39384 559.44934 983.01367 560.31836 C 976.6335 561.18738 970.23689 561.93554 963.82812 562.5625 C 957.41936 563.18946 950.99852 563.69666 944.57031 564.08203 C 938.1421 564.4674 931.70609 564.73073 925.26758 564.875 C 918.82906 565.01927 912.38694 565.04362 905.94727 564.94727 C 899.50759 564.85091 893.07037 564.63534 886.63867 564.29883 C 880.20698 563.96232 873.78176 563.50586 867.36719 562.92969 C 860.95262 562.35351 854.54846 561.65717 848.16016 560.8418 C 841.77185 560.02643 835.39977 559.09119 829.04688 558.03711 C 822.69398 556.98303 816.36108 555.8099 810.05273 554.51758 C 803.74439 553.22526 797.45973 551.81328 791.20508 550.2832 C 784.95043 548.75313 778.72502 547.10524 772.5332 545.33789 C 766.34139 543.57054 760.18429 541.68384 754.06445 539.67969 C 747.94462 537.67553 741.86293 535.55298 735.82422 533.3125 C 728.85752 530.72772 721.96221 527.99827 715.13281 525.13672 C 708.30341 522.27517 701.53956 519.28145 694.83398 516.16992 C 688.12841 513.05839 681.48194 509.82886 674.88672 506.49414 C 668.29149 503.15942 661.74835 499.72056 655.25 496.18945 C 648.75165 492.65834 642.29776 489.03469 635.88281 485.33398 C 629.46786 481.63328 623.09112 477.85522 616.74609 474.01172 C 604.05604 466.32471 591.49121 458.37869 579 450.28125 C 566.50879 442.18381 554.09157 433.93414 541.69141 425.64062 C 529.29124 417.34711 516.90911 409.0096 504.49219 400.73438 C 492.07526 392.45915 479.62352 384.24765 467.08203 376.20508 C 454.54055 368.1625 441.90862 360.28892 429.13477 352.69336 C 422.74784 348.89558 416.31355 345.16262 409.83008 341.50977 C 403.34661 337.85691 396.81461 334.28501 390.23242 330.80859 C 383.65023 327.33218 377.01903 323.95205 370.33594 320.68359 C 363.65285 317.41514 356.91703 314.25751 350.13086 311.22852 C 343.34469 308.19952 336.50666 305.29903 329.61523 302.54102 C 322.72381 299.783 315.78011 297.16842 308.78125 294.71289 C 301.78239 292.25736 294.72957 289.95942 287.62109 287.83789 C 280.51261 285.71636 273.34723 283.76969 266.12695 282.01367 C 258.90668 280.25766 251.62455 278.70072 244.29688 277.35547 C 236.9692 276.01022 229.5978 274.87678 222.19922 273.9707 C 214.80064 273.06462 207.37439 272.38578 199.94141 271.94727 C 192.50842 271.50875 185.06761 271.31168 177.63672 271.36914 C 170.20583 271.4266 162.78487 271.73848 155.39258 272.32031 C 148.00028 272.90214 140.63752 273.75407 133.32031 274.88867 C 126.00311 276.02327 118.73101 277.44048 111.52539 279.15625 C 104.31977 280.87202 97.180576 282.88559 90.123047 285.21094 C 83.230644 287.48188 76.43918 290.05044 69.769531 292.90234 C 63.099882 295.75425 56.551429 298.89071 50.144531 302.29297 C 43.737633 305.69522 37.471337 309.36318 31.367188 313.28516 C 25.263038 317.20713 19.321951 321.38189 13.560547 325.79297 C 8.8880535 329.37035 4.4232421 333.20901 0 337.08984 L 0 720 L 1280 720 L 1280 409.51758 z "
       style="fill:url(#linearGradient1138);fill-opacity:1;stroke:url(#linearGradient1128);stroke-width:0.999999;stroke-opacity:1"
       id="rect1044" />
    <path
       style="color:#000000;font-style:normal;font-variant:normal;font-weight:normal;font-stretch:normal;font-size:medium;line-height:normal;font-family:sans-serif;font-variant-ligatures:normal;font-variant-position:normal;font-variant-caps:normal;font-variant-numeric:normal;font-variant-alternates:normal;font-variant-east-asian:normal;font-feature-settings:normal;font-variation-settings:normal;text-indent:0;text-align:start;text-decoration:none;text-decoration-line:none;text-decoration-style:solid;text-decoration-color:#000000;letter-spacing:normal;word-spacing:normal;text-transform:none;writing-mode:lr-tb;direction:ltr;text-orientation:mixed;dominant-baseline:auto;baseline-shift:baseline;text-anchor:start;white-space:normal;shape-padding:0;shape-margin:0;inline-size:0;clip-rule:nonzero;display:inline;overflow:visible;visibility:visible;opacity:1;isolation:auto;mix-blend-mode:normal;color-interpolation:sRGB;color-interpolation-filters:linearRGB;solid-color:#000000;solid-opacity:1;vector-effect:none;fill:#000000;fill-opacity:0.34999999;fill-rule:nonzero;stroke:none;stroke-width:0.26458300000000001px;stroke-linecap:butt;stroke-linejoin:miter;stroke-miterlimit:4;stroke-dasharray:none;stroke-dashoffset:0;stroke-opacity:1;color-rendering:auto;image-rendering:auto;shape-rendering:auto;text-rendering:auto;enable-background:accumulate;stop-color:#000000;stop-opacity:1;filter:url(#filter938)"
       d="m 238.3125,108.58398 c -18.49428,-0.54152 -37.29392,2.83804 -55.02734,8.36719 -28.3721,8.84622 -54.76043,22.91736 -81.74024,35.32813 -32.882616,15.12607 -66.861546,27.86865 -101.58202937,38.09375 l 0.07421874,0.2539 C 169.33333,190.5 169.33333,190.5 338.53711,190.52734 l 0.25977,-0.0547 c -3.61676,-17.44203 -11.8844,-33.89534 -23.71876,-47.20899 -11.83435,-13.31365 -27.2058,-23.4531 -44.10351,-29.08984 -11.24596,-3.17594 -22.7177,-5.24984 -32.66211,-5.58983 z"
       id="path936" />
    <path
       id="path71"
       d="m 238.3125,108.58398 c -18.49428,-0.54152 -37.29392,2.83804 -55.02734,8.36719 -28.3721,8.84622 -54.76043,22.91736 -81.74024,35.32813 -32.882616,15.12607 -66.861546,27.86865 -101.58202937,38.09375 l 0.07421874,0.2539 C 169.33333,190.5 169.33333,190.5 338.53711,190.52734 l 0.25977,-0.0547 c -3.61676,-17.44203 -11.8844,-33.89534 -23.71876,-47.20899 -11.83435,-13.31365 -27.2058,-23.4531 -44.10351,-29.08984 -11.24596,-3.17594 -22.7177,-5.24984 -32.66211,-5.58983 z"
       style="color:#000000;font-style:normal;font-variant:normal;font-weight:normal;font-stretch:normal;font-size:medium;line-height:normal;font-family:sans-serif;font-variant-ligatures:normal;font-variant-position:normal;font-variant-caps:normal;font-variant-numeric:normal;font-variant-alternates:normal;font-variant-east-asian:normal;font-feature-settings:normal;font-variation-settings:normal;text-indent:0;text-align:start;text-decoration:none;text-decoration-line:none;text-decoration-style:solid;text-decoration-color:#000000;letter-spacing:normal;word-spacing:normal;text-transform:none;writing-mode:lr-tb;direction:ltr;text-orientation:mixed;dominant-baseline:auto;baseline-shift:baseline;text-anchor:start;white-space:normal;shape-padding:0;shape-margin:0;inline-size:0;clip-rule:nonzero;display:inline;overflow:visible;visibility:visible;opacity:1;isolation:auto;mix-blend-mode:normal;color-interpolation:sRGB;color-interpolation-filters:linearRGB;solid-color:#000000;solid-opacity:1;vector-effect:none;fill:url(#linearGradient959);fill-opacity:1;fill-rule:nonzero;stroke:none;stroke-width:0.26458300000000001px;stroke-linecap:butt;stroke-linejoin:miter;stroke-miterlimit:4;stroke-dasharray:none;stroke-dashoffset:0;stroke-opacity:1;color-rendering:auto;image-rendering:auto;shape-rendering:auto;text-rendering:auto;enable-background:accumulate;stop-color:#000000;stop-opacity:1" />
  </g>
</svg>
